HIERARCHY
ROOT Hips
{
	OFFSET 0.000000 0.000000 0.000000
	CHANNELS 6 Xposition Yposition Zposition Xrotation Yrotation Zrotation
	JOINT LeftUpLeg_virtual
	{
		OFFSET 0.000000 0.000000 0.000000
		CHANNELS 3 Xrotation Yrotation Zrotation
		JOINT LeftUpLeg
		{
			OFFSET 15.427100 -6.655098 0.678600
			CHANNELS 3 Xrotation Yrotation Zrotation
			JOINT LeftLeg
			{
				OFFSET 4.081073 -39.591068 13.024000
				CHANNELS 3 Xrotation Yrotation Zrotation
				JOINT LeftFoot
				{
					OFFSET -4.081074 -37.707932 -15.979700
					CHANNELS 3 Xrotation Yrotation Zrotation
					JOINT LeftToeBase
					{
						OFFSET 5.346399 -15.068900 20.645000
						CHANNELS 3 Xrotation Yrotation Zrotation
						JOINT LeftToe_End
						{
							OFFSET 2.754700 0.931300 11.300900
							CHANNELS 3 Xrotation Yrotation Zrotation
							End Site
							{
								OFFSET 0 0 0
							}
						}
					}
				}
			}
		}
	}
	JOINT RightUpLeg_virtual
	{
		OFFSET 0.000000 0.000000 0.000000
		CHANNELS 3 Xrotation Yrotation Zrotation
		JOINT RightUpLeg
		{
			OFFSET -15.569500 -6.655098 0.678600
			CHANNELS 3 Xrotation Yrotation Zrotation
			JOINT RightLeg
			{
				OFFSET -4.081825 -39.591045 13.023800
				CHANNELS 3 Xrotation Yrotation Zrotation
				JOINT RightFoot
				{
					OFFSET 4.081824 -37.707954 -15.979600
					CHANNELS 3 Xrotation Yrotation Zrotation
					JOINT RightToeBase
					{
						OFFSET -5.346400 -15.068900 20.645000
						CHANNELS 3 Xrotation Yrotation Zrotation
						JOINT RightToe_End
						{
							OFFSET -2.754700 0.931300 11.300900
							CHANNELS 3 Xrotation Yrotation Zrotation
							End Site
							{
								OFFSET 0 0 0
							}
						}
					}
				}
			}
		}
	}
	JOINT Spine_virtual
	{
		OFFSET 0.000000 0.000000 0.000000
		CHANNELS 3 Xrotation Yrotation Zrotation
		JOINT Spine
		{
			OFFSET -0.279200 12.230698 -2.892100
			CHANNELS 3 Xrotation Yrotation Zrotation
			JOINT Spine1
			{
				OFFSET -0.232667 10.192268 -1.242267
				CHANNELS 3 Xrotation Yrotation Zrotation
				JOINT Spine1_split
				{
					OFFSET -0.232667 10.192268 -1.242267
					CHANNELS 3 Xrotation Yrotation Zrotation
					JOINT Spine2
					{
						OFFSET -0.232667 10.192268 -1.242267
						CHANNELS 3 Xrotation Yrotation Zrotation
						JOINT Neck_virtual
						{
							OFFSET 0.000000 0.000000 0.000000
							CHANNELS 3 Xrotation Yrotation Zrotation
							JOINT Neck
							{
								OFFSET -0.418800 17.814194 8.416900
								CHANNELS 3 Xrotation Yrotation Zrotation
								JOINT Head
								{
									OFFSET 0.000000 7.031097 3.806800
									CHANNELS 3 Xrotation Yrotation Zrotation
									JOINT HeadTop_End
									{
										OFFSET 0.000000 24.646606 12.978600
										CHANNELS 3 Xrotation Yrotation Zrotation
										End Site
										{
											OFFSET 0 0 0
										}
									}
								}
							}
						}
						JOINT LeftShoulder_virtual
						{
							OFFSET 0.000000 0.000000 0.000000
							CHANNELS 3 Xrotation Yrotation Zrotation
							JOINT LeftShoulder
							{
								OFFSET 8.476499 7.247704 -3.868750
								CHANNELS 3 Xrotation Yrotation Zrotation
								JOINT LeftShoulder_split
								{
									OFFSET 8.476499 7.247704 -3.868750
									CHANNELS 3 Xrotation Yrotation Zrotation
									JOINT LeftArm
									{
										OFFSET 9.308998 -2.777710 0.208600
										CHANNELS 3 Xrotation Yrotation Zrotation
										JOINT LeftForeArm
										{
											OFFSET 29.972298 0.000000 0.000000
											CHANNELS 3 Xrotation Yrotation Zrotation
											JOINT LeftHand
											{
												OFFSET 26.026505 0.000000 0.000000
												CHANNELS 3 Xrotation Yrotation Zrotation
												End Site
												{
													OFFSET 0 0 0
												}
											}
										}
									}
								}
							}
						}
						JOINT RightShoulder_virtual
						{
							OFFSET 0.000000 0.000000 0.000000
							CHANNELS 3 Xrotation Yrotation Zrotation
							JOINT RightShoulder
							{
								OFFSET -7.570500 7.247704 -3.868750
								CHANNELS 3 Xrotation Yrotation Zrotation
								JOINT RightShoulder_split
								{
									OFFSET -7.570500 7.247704 -3.868750
									CHANNELS 3 Xrotation Yrotation Zrotation
									JOINT RightArm
									{
										OFFSET -9.308998 -2.777710 0.208500
										CHANNELS 3 Xrotation Yrotation Zrotation
										JOINT RightForeArm
										{
											OFFSET -29.972300 0.000000 0.000000
											CHANNELS 3 Xrotation Yrotation Zrotation
											JOINT RightHand
											{
												OFFSET -26.026505 0.000000 0.000000
												CHANNELS 3 Xrotation Yrotation Zrotation
												End Site
												{
													OFFSET 0 0 0
												}
											}
										}
									}
								}
							}
						}
					}
				}
			}
		}
	}
}
MOTION
Frames: 10
Frame Time: 0.03333333
-0.003836 74.367645 -0.357208 0.000000 0.000000 0.000000 11.754898 -49.677670 11.771174 -67.586634 25.164372 42.947311 43.279931 -19.356824 3.336747 8.271392 0.637619 -12.352656 -0.971153 -6.109424 0.596050 0.000000 0.000000 0.000000 11.754898 -49.677670 11.771174 -29.726804 0.631914 -30.303002 49.963145 5.852315 -4.864600 -26.770993 -5.250375 27.155377 0.528349 2.969995 1.471348 0.000000 0.000000 0.000000 11.754898 -49.677670 11.771174 10.996920 2.942208 -2.515507 6.100716 5.566538 -4.284690 0.000000 0.000000 0.000000 0.000000 0.000000 0.000000 -5.786909 6.328142 -3.046186 2.318649 9.363424 -0.265732 -4.146877 23.161860 -3.522970 0.000000 0.000000 0.000000 -5.786909 6.328142 -3.046186 -1.882852 -16.244768 -2.883350 0.000000 0.000000 0.000000 -10.641500 2.224941 -45.488356 -22.862390 -25.786249 -15.871724 0.000000 0.000000 0.000000 -5.786909 6.328142 -3.046186 -5.080961 24.428090 1.493068 0.000000 0.000000 0.000000 6.647389 -34.818549 57.612933 -21.031993 44.833819 19.961689 0.000000 0.000000 0.000000 
-0.064648 74.335510 -0.375866 0.000000 0.000000 0.000000 11.591582 -49.954559 11.701810 -67.319144 25.165111 43.085714 43.341891 -19.237040 3.439411 8.132824 0.669469 -12.577527 -1.053281 -6.219628 0.643507 0.000000 0.000000 0.000000 11.591582 -49.954559 11.701810 -29.690078 0.822078 -30.228805 50.070829 5.886181 -4.863197 -26.742122 -5.180513 27.100456 0.552212 2.999110 1.361369 0.000000 0.000000 0.000000 11.591582 -49.954559 11.701810 11.015410 3.031782 -2.554108 6.210110 5.609801 -4.231201 0.000000 0.000000 0.000000 0.000000 0.000000 0.000000 -5.697422 6.318252 -3.012863 2.193454 9.464197 -0.640307 -4.095898 23.049771 -3.380863 0.000000 0.000000 0.000000 -5.697422 6.318252 -3.012863 -1.908070 -16.258765 -3.020663 0.000000 0.000000 0.000000 -10.687439 2.247404 -45.360034 -22.769672 -25.731442 -15.803255 0.000000 0.000000 0.000000 -5.697422 6.318252 -3.012863 -5.072081 24.344579 1.612732 0.000000 0.000000 0.000000 6.672741 -34.749632 56.881730 -18.584970 45.084019 18.881571 0.000000 0.000000 0.000000 
-0.129045 74.310028 -0.464668 0.000000 0.000000 0.000000 11.269057 -50.234406 11.643353 -66.830491 25.277203 43.036363 43.295101 -19.064134 3.644616 8.035688 0.645199 -12.915290 -1.123556 -6.278455 0.685836 0.000000 0.000000 0.000000 11.269057 -50.234406 11.643353 -29.662210 1.040317 -30.262301 50.262682 6.007744 -4.849266 -26.680693 -5.069998 26.954105 0.625078 2.940830 1.336919 0.000000 0.000000 0.000000 11.269057 -50.234406 11.643353 11.042578 3.084988 -2.613919 6.331281 5.599948 -4.228957 0.000000 0.000000 0.000000 0.000000 0.000000 0.000000 -5.592463 6.271875 -3.037227 2.123667 9.689428 -1.179596 -4.049722 22.935635 -3.100423 0.000000 0.000000 0.000000 -5.592463 6.271875 -3.037227 -1.896885 -15.889937 -3.087225 0.000000 0.000000 0.000000 -10.739183 2.060710 -45.364248 -22.581789 -25.698809 -15.654597 0.000000 0.000000 0.000000 -5.592463 6.271875 -3.037227 -5.134573 24.848302 2.120641 0.000000 0.000000 0.000000 6.274985 -34.716158 53.957661 -9.547851 44.108440 14.324990 0.000000 0.000000 0.000000 
-0.210714 74.305634 -0.652031 0.000000 0.000000 0.000000 10.924514 -50.907934 11.461183 -66.276310 25.315545 43.361845 43.198747 -18.827183 3.902620 7.921149 0.618949 -13.458954 -1.203874 -6.280735 0.735106 0.000000 0.000000 0.000000 10.924514 -50.907934 11.461183 -29.522099 1.798499 -29.759660 50.482399 5.822011 -4.918250 -26.522794 -5.016858 26.893375 0.457961 2.755679 1.134614 0.000000 0.000000 0.000000 10.924514 -50.907934 11.461183 11.067407 3.150133 -2.754842 6.447401 5.652631 -4.384803 0.000000 0.000000 0.000000 0.000000 0.000000 0.000000 -5.490720 6.324095 -3.199999 2.057284 9.915246 -1.370660 -3.785021 22.911677 -2.839734 0.000000 0.000000 0.000000 -5.490720 6.324095 -3.199999 -1.892131 -15.676847 -3.056775 0.000000 0.000000 0.000000 -10.684161 2.325796 -45.124980 -22.465269 -25.817500 -15.514906 0.000000 0.000000 0.000000 -5.490720 6.324095 -3.199999 -4.992330 24.477597 2.436429 0.000000 0.000000 0.000000 5.492929 -32.730260 49.929912 3.493380 38.566305 8.525808 0.000000 0.000000 0.000000 
-0.303967 74.376747 -0.895424 0.000000 0.000000 0.000000 10.512739 -51.579260 11.211802 -65.516001 25.338912 43.492135 42.972060 -18.428801 4.349833 7.810973 0.585058 -14.187571 -1.184361 -6.265940 0.803743 0.000000 0.000000 0.000000 10.512739 -51.579260 11.211802 -29.134889 2.752633 -29.079698 50.640450 5.285051 -5.071648 -26.467109 -5.102941 27.009474 0.412298 2.610077 1.139634 0.000000 0.000000 0.000000 10.512739 -51.579260 11.211802 11.141187 3.185022 -3.032975 6.667156 5.659038 -4.816348 0.000000 0.000000 0.000000 0.000000 0.000000 0.000000 -5.279797 6.392593 -3.639197 1.352305 9.878830 -0.630884 -3.073672 22.961110 -2.981164 0.000000 0.000000 0.000000 -5.279797 6.392593 -3.639197 -1.815693 -15.200625 -2.652851 0.000000 0.000000 0.000000 -10.878638 2.223976 -44.702540 -22.305301 -25.873460 -15.300199 0.000000 0.000000 0.000000 -5.279797 6.392593 -3.639197 -4.959388 25.346129 3.115289 0.000000 0.000000 0.000000 4.203173 -31.045710 46.983570 14.417339 29.637704 6.464276 0.000000 0.000000 0.000000 
-0.474424 74.592010 -1.298096 0.000000 0.000000 0.000000 10.100269 -51.636790 11.114385 -64.631259 25.516053 42.857231 42.196765 -17.496216 5.086897 8.268431 0.436721 -15.019743 -1.284990 -7.557913 0.860819 0.000000 0.000000 0.000000 10.100269 -51.636790 11.114385 -28.542387 3.457280 -28.587086 50.738590 4.431755 -5.268572 -26.534979 -5.283262 27.188574 0.268779 2.442454 1.275308 0.000000 0.000000 0.000000 10.100269 -51.636790 11.114385 11.281181 3.246927 -3.356482 7.011807 5.730193 -5.302701 0.000000 0.000000 0.000000 0.000000 0.000000 0.000000 -4.942856 6.540216 -4.115482 0.060294 9.502322 0.223879 -2.439616 22.726425 -3.346740 0.000000 0.000000 0.000000 -4.942856 6.540216 -4.115482 -1.725480 -14.789219 -2.070553 0.000000 0.000000 0.000000 -11.687835 1.123601 -44.574190 -21.831643 -25.555243 -14.862492 0.000000 0.000000 0.000000 -4.942856 6.540216 -4.115482 -4.924333 26.129153 3.885943 0.000000 0.000000 0.000000 3.544196 -28.981862 44.863145 24.709082 21.116568 6.499690 0.000000 0.000000 0.000000 
-0.736552 74.838531 -1.883785 0.000000 0.000000 0.000000 9.419224 -50.279799 10.719720 -64.293247 25.664852 41.521587 41.121543 -18.564012 5.351143 8.942888 0.399382 -15.127532 -1.291023 -5.978266 1.354461 0.000000 0.000000 0.000000 9.419224 -50.279799 10.719720 -27.355160 3.281927 -28.467745 50.851359 3.084242 -5.339321 -27.022926 -5.648737 27.482629 0.122817 2.228747 1.390052 0.000000 0.000000 0.000000 9.419224 -50.279799 10.719720 11.477428 3.284070 -3.530507 7.443100 5.725125 -5.468202 0.000000 0.000000 0.000000 0.000000 0.000000 0.000000 -4.519281 6.551277 -4.290406 -1.073113 9.034034 0.087347 -2.667251 22.010170 -3.307465 0.000000 0.000000 0.000000 -4.519281 6.551277 -4.290406 -1.680282 -14.545528 -1.680228 0.000000 0.000000 0.000000 -12.967752 -0.805162 -45.079286 -21.252111 -25.339792 -14.438263 0.000000 0.000000 0.000000 -4.519281 6.551277 -4.290406 -4.600733 26.487984 4.253002 0.000000 0.000000 0.000000 5.638118 -26.646453 42.538415 36.904612 19.526015 4.800596 0.000000 0.000000 0.000000 
-1.111700 75.263870 -2.766293 0.000000 0.000000 0.000000 8.949981 -47.394683 10.205920 -65.148544 26.085869 39.946081 39.065708 -20.329022 5.019009 11.252358 0.115560 -14.235987 -0.823174 -5.532565 1.031375 0.000000 0.000000 0.000000 8.949981 -47.394683 10.205920 -25.739004 2.240568 -28.241775 50.734201 0.912394 -5.279321 -27.690605 -6.202467 27.935653 0.011313 1.980174 1.336061 0.000000 0.000000 0.000000 8.949981 -47.394683 10.205920 11.571450 3.218397 -3.623849 7.643068 5.536282 -5.367348 0.000000 0.000000 0.000000 0.000000 0.000000 0.000000 -4.324222 6.331526 -4.240046 -0.982421 8.166114 -0.120173 -3.373957 21.023916 -3.310532 0.000000 0.000000 0.000000 -4.324222 6.331526 -4.240046 -1.658331 -15.003945 -1.259020 0.000000 0.000000 0.000000 -13.749402 -2.192524 -45.850312 -20.978875 -25.981879 -14.522200 0.000000 0.000000 0.000000 -4.324222 6.331526 -4.240046 -3.885464 25.338834 3.877566 0.000000 0.000000 0.000000 14.135932 -19.995391 40.367695 35.868646 24.857717 1.434666 0.000000 0.000000 0.000000 
-1.521799 75.828316 -3.780621 0.000000 0.000000 0.000000 8.390746 -43.718576 9.498282 -66.356866 27.025696 38.449512 36.109786 -22.901566 3.790048 14.553803 -0.149940 -12.586110 -0.283363 -5.075248 0.705452 0.000000 0.000000 0.000000 8.390746 -43.718576 9.498282 -23.727210 0.718959 -27.872918 50.347493 -1.631064 -5.126293 -28.323369 -6.838399 28.466960 -0.158222 1.551324 1.353338 0.000000 0.000000 0.000000 8.390746 -43.718576 9.498282 11.681384 2.959287 -3.766072 7.868370 4.985268 -5.311830 0.000000 0.000000 0.000000 0.000000 0.000000 0.000000 -4.093971 5.770543 -4.307148 -0.341423 7.167744 0.286246 -4.117697 20.204323 -3.368746 0.000000 0.000000 0.000000 -4.093971 5.770543 -4.307148 -1.563357 -15.115593 -0.352957 0.000000 0.000000 0.000000 -14.282827 -3.270394 -46.722408 -20.763399 -27.080078 -14.832119 0.000000 0.000000 0.000000 -4.093971 5.770543 -4.307148 -2.954738 22.532207 3.213190 0.000000 0.000000 0.000000 20.562452 -10.104759 36.436792 31.717455 26.796321 -0.204007 0.000000 0.000000 0.000000 
-1.791736 76.352493 -4.773457 0.000000 0.000000 0.000000 7.876084 -39.720402 8.900436 -66.716789 27.835948 36.642175 33.924655 -23.898354 2.148444 16.991166 -0.053410 -10.426227 -0.172050 -4.549443 0.260880 0.000000 0.000000 0.000000 7.876084 -39.720402 8.900436 -21.905393 -1.116336 -27.723444 49.946117 -3.982791 -4.885492 -28.770225 -7.440228 28.957629 -0.287061 1.171167 1.480427 0.000000 0.000000 0.000000 7.876084 -39.720402 8.900436 11.872421 2.723810 -3.824628 8.258245 4.458418 -5.234967 0.000000 0.000000 0.000000 0.000000 0.000000 0.000000 -3.699400 5.232274 -4.345721 -0.596549 6.339882 0.029177 -4.368282 18.901599 -2.256796 0.000000 0.000000 0.000000 -3.699400 5.232274 -4.345721 -1.512980 -14.457420 0.126985 0.000000 0.000000 0.000000 -15.359526 -5.036123 -47.674106 -20.090879 -28.347836 -15.314527 0.000000 0.000000 0.000000 -3.699400 5.232274 -4.345721 -2.088039 19.837864 2.691811 0.000000 0.000000 0.000000 26.691695 -1.011551 31.912003 28.701196 24.582766 -1.076480 0.000000 0.000000 0.000000 
